<svg width="48" height="48" viewBox="0 0 48 48" fill="none" xmlns="http://www.w3.org/2000/svg">
  <path d="M8 35.8c5.1-4.9 11.2-7.3 18.4-7.3 5.4 0 9.9 1.3 13.6 3.9-3.3 5.1-8.9 8.1-16.4 8.1-6.7 0-12-1.6-15.6-4.7Z" fill="#64706A"/>
  <path d="M14.3 33.5c7.7-7.8 15.1-13.2 22.4-16.5" stroke="#A9B6AE" stroke-width="3.4" stroke-linecap="round"/>
  <path d="M35.9 6.7 38.4 13l6.4 2.3-6.4 2.4-2.5 6.2-2.4-6.2-6.3-2.4 6.3-2.3 2.4-6.3Z" fill="#D8C58E" stroke="#F1E5B2" stroke-width="1.2"/>
  <path d="M23.7 30.8c.9-5.6 3.2-9.4 6.8-11.6" stroke="#D8C58E" stroke-width="2.4" stroke-linecap="round"/>
  <circle cx="13.2" cy="36" r="1.8" fill="#E6DDD0"/>
</svg>
