<svg width="256" height="256" viewBox="0 0 256 256" fill="none" xmlns="http://www.w3.org/2000/svg">
  <path d="M128 224C181.019 224 224 181.019 224 128C224 74.9807 181.019 32 128 32C74.9807 32 32 74.9807 32 128C32 181.019 74.9807 224 128 224Z" fill="url(#g0)"/>
  <path d="M65 155C79 181 105 195 134 191C164 187 188 166 195 136" stroke="#F8FAFF" stroke-width="13" stroke-linecap="round"/>
  <path d="M62 122C66 86 96 61 132 65C158 68 180 84 190 108" stroke="#1A2233" stroke-width="13" stroke-linecap="round"/>
  <path d="M85 174C117 128 157 91 209 64" stroke="#7D83FF" stroke-width="14" stroke-linecap="round"/>
  <path d="M190 70L217 56L210 86" stroke="#7D83FF" stroke-width="14" stroke-linecap="round" stroke-linejoin="round"/>
  <path d="M78 88C96 104 118 110 146 105" stroke="#F8FAFF" stroke-width="7" stroke-linecap="round" opacity="0.85"/>
  <path d="M70 144C91 139 111 145 130 162" stroke="#1A2233" stroke-width="7" stroke-linecap="round" opacity="0.75"/>
  <circle cx="204" cy="66" r="10" fill="#F8FAFF"/>
  <defs>
    <linearGradient id="g0" x1="54" y1="48" x2="207" y2="219" gradientUnits="userSpaceOnUse">
      <stop stop-color="#F4F6FF"/>
      <stop offset="0.48" stop-color="#DDE3FF"/>
      <stop offset="1" stop-color="#9AA7FF"/>
    </linearGradient>
  </defs>
</svg>
